<svg width="80" height="23" viewBox="0 0 80 23" fill="none" xmlns="http://www.w3.org/2000/svg">
<path d="M12.9436 6.73812H4.16719V10.5097H10.6231V13.7442H4.16719V18.4428H13.2809V21.8763H0.333008V3.30469H12.9436V6.73812Z" fill="white"/>
<path d="M32.7053 7.64118C33.4725 7.62675 34.2351 7.76193 34.9496 8.03903C35.5852 8.2939 36.1566 8.68364 36.6238 9.18085C37.0948 9.69379 37.4506 10.2999 37.6677 10.9592C37.9128 11.6998 38.0322 12.4755 38.021 13.2548V21.8921H34.1868V13.776C34.2301 13.0501 33.9852 12.3361 33.5043 11.7868C33.2706 11.5461 32.988 11.3574 32.6751 11.2333C32.3622 11.1091 32.0263 11.0523 31.6896 11.0667C31.3438 11.0518 30.9987 11.1082 30.676 11.2321C30.3533 11.3561 30.06 11.5449 29.8147 11.7868C29.5707 12.0397 29.381 12.3389 29.2568 12.6664C29.1326 12.9939 29.0765 13.3429 29.092 13.6925V21.8842H25.2578V13.776C25.3011 13.0501 25.0562 12.3361 24.5753 11.7868C24.3367 11.5436 24.0486 11.3536 23.7302 11.2295C23.4117 11.1053 23.0702 11.0498 22.7284 11.0667C22.385 11.0514 22.0422 11.1076 21.722 11.2316C21.4019 11.3556 21.1115 11.5447 20.8696 11.7868C20.6274 12.0568 20.4414 12.3714 20.3222 12.7128C20.203 13.0541 20.153 13.4155 20.175 13.776V21.8802H16.3408V7.95548H19.8578V9.19279C20.3399 8.69834 20.9212 8.30939 21.5641 8.05096C22.2879 7.77197 23.0601 7.63679 23.8365 7.65312C24.6897 7.6294 25.5363 7.80809 26.3057 8.1743C26.9884 8.51323 27.5708 9.02178 27.9959 9.65032C28.5602 9.03903 29.2429 8.54653 30.0033 8.20215C30.8513 7.82024 31.774 7.62869 32.7053 7.64118Z" fill="white"/>
<path d="M43.6172 0.519421C44.2576 0.511579 44.8752 0.754656 45.3356 1.19576C45.5704 1.41053 45.7563 1.67242 45.8809 1.96398C46.0055 2.25555 46.066 2.57008 46.0583 2.88662C46.0635 3.19813 46.0017 3.50716 45.8771 3.7932C45.7525 4.07924 45.5679 4.33573 45.3356 4.54565C44.8752 4.98676 44.2576 5.22984 43.6172 5.22199C42.9679 5.23331 42.3403 4.99026 41.8708 4.54565C41.6385 4.33573 41.4539 4.07924 41.3293 3.7932C41.2047 3.50716 41.1429 3.19813 41.1481 2.88662C41.1404 2.57008 41.2009 2.25555 41.3255 1.96398C41.4501 1.67242 41.636 1.41053 41.8708 1.19576C42.3403 0.75115 42.9679 0.5081 43.6172 0.519421ZM45.5203 21.8799H41.6861V7.95521H45.5203V21.8799Z" fill="white"/>
<path d="M56.9343 7.64097C57.6922 7.62813 58.4453 7.76332 59.1505 8.03882C59.781 8.29803 60.3469 8.69041 60.8086 9.1886C61.2834 9.6999 61.6469 10.3025 61.8766 10.959C62.1317 11.6976 62.2566 12.4741 62.2459 13.2546V21.8919H58.4399V13.744C58.4722 13.0243 58.2168 12.3209 57.7292 11.7866C57.4835 11.5355 57.1868 11.339 56.8588 11.2101C56.5307 11.0812 56.1788 11.0227 55.8262 11.0386C55.4697 11.0245 55.114 11.0836 54.7817 11.2124C54.4493 11.3411 54.1474 11.5366 53.8951 11.7866C53.6456 12.047 53.4516 12.3545 53.3247 12.6908C53.1978 13.0271 53.1405 13.3853 53.1563 13.744V21.876H49.3262V7.95129H52.8472V9.24828C53.3538 8.75031 53.9521 8.35325 54.6097 8.07861C55.3463 7.7769 56.1374 7.62796 56.9343 7.64097Z" fill="white"/>
<path d="M80 21.8803H76.4669V20.1934C75.9789 20.8472 75.329 21.3652 74.5799 21.6973C73.753 22.057 72.8572 22.2348 71.9542 22.2185C71.0073 22.23 70.0687 22.0429 69.2 21.6694C68.386 21.317 67.6556 20.7992 67.0561 20.1496C66.4435 19.4763 65.9665 18.693 65.6509 17.8421C65.3056 16.9125 65.1342 15.9283 65.145 14.9378C65.1358 13.9442 65.3099 12.9572 65.6589 12.0256C65.9769 11.1722 66.4597 10.3884 67.0802 9.71805C67.6853 9.06172 68.4207 8.53621 69.2402 8.1744C70.0996 7.80295 71.0287 7.61585 71.9663 7.62537C72.7915 7.61409 73.6106 7.76696 74.3752 8.07494C75.0719 8.36476 75.6936 8.80676 76.1939 9.36795V0.774414H80V21.8803ZM72.6407 11.0747C72.1621 11.0765 71.6885 11.1725 71.2476 11.3572C70.8178 11.5326 70.4275 11.7909 70.0993 12.1171C69.7579 12.457 69.4914 12.8634 69.3164 13.3106C69.1214 13.8187 69.0247 14.3585 69.0314 14.902C69.0237 15.4456 69.1204 15.9857 69.3164 16.4934C69.4937 16.9357 69.7539 17.3407 70.0833 17.687C70.4053 18.0384 70.8033 18.3132 71.2476 18.4906C71.6941 18.6691 72.1714 18.7596 72.6528 18.7572C73.0934 18.7564 73.5306 18.6811 73.9456 18.5344C74.3709 18.3834 74.7614 18.1494 75.0938 17.8461C75.4505 17.5106 75.7311 17.1038 75.9169 16.6526C76.1383 16.1026 76.2449 15.5138 76.23 14.9219C76.2432 14.334 76.1367 13.7494 75.9169 13.2032C75.7318 12.7565 75.4589 12.3507 75.1139 12.0097C74.7917 11.6954 74.4038 11.4551 73.9777 11.3055C73.5492 11.1514 73.0966 11.0733 72.6407 11.0747Z" fill="white"/>
</svg>
