<svg width="20" height="20" viewBox="0 0 20 20" fill="none" xmlns="http://www.w3.org/2000/svg">
<path fill-rule="evenodd" clip-rule="evenodd" d="M15.2055 2.7423C15.6243 3.90838 15.0185 5.19314 13.8524 5.61189C13.2952 5.81198 12.7111 5.7777 12.2072 5.56052C11.0401 4.98044 9.64758 4.8584 8.32414 5.33366C5.747 6.25914 4.40807 9.09856 5.33354 11.6757C6.25902 14.2528 9.09844 15.5918 11.6756 14.6663C14.2527 13.7408 15.5917 10.9014 14.6662 8.32426C14.393 7.56349 13.9529 6.91073 13.4021 6.39214C13.6276 6.36797 13.8539 6.31703 14.0769 6.23696C15.5544 5.70635 16.3377 4.10293 15.8647 2.61927C17.1942 3.67364 18.2555 5.09976 18.8712 6.8142C20.6306 11.7137 18.0851 17.1119 13.1856 18.8713C8.28615 20.6308 2.88799 18.0853 1.12854 13.1858C-0.630918 8.28627 1.91459 2.88811 6.81408 1.12865C9.37742 0.208135 12.0772 0.465994 14.321 1.62279C14.7162 1.88043 15.0338 2.26406 15.2055 2.7423Z" fill="white"/>
</svg>
